<?xml version="1.0" encoding="utf-8"?>
<!-- Generator: Adobe Illustrator 21.0.0, SVG Export Plug-In . SVG Version: 6.00 Build 0)  -->
<svg version="1.1" id="图层_1" xmlns="http://www.w3.org/2000/svg" xmlns:xlink="http://www.w3.org/1999/xlink" x="0px" y="0px"
	 viewBox="0 0 66.6 135.5" style="enable-background:new 0 0 66.6 135.5;" xml:space="preserve">
<style type="text/css">
	.st0{fill:#2ECC71;}
	.st1{fill:#58D68D;}
	.st2{fill:#28B463;}
</style>
<g>
	<g>
		<path class="st0" d="M32.7,65.4c0-1.2,0-2.3-1.2-2.3c0-1.2,0-1.2-1.2-2.3l0,0c-1.2-7-5.8-12.8-5.8-21c0,0,0-2.3,1.2-3.5
			c0-2.3,1.2-3.5,1.2-5.8c0-1.2,0-2.3,0-3.5v-1.2c0-1.2,1.2-1.2,1.2,0s0,1.2,1.2,2.3c1.2,2.3,1.2,5.8,2.3,8.2c0,1.2,1.2,3.5,1.2,4.7
			c1.2,2.3,1.2,4.7,1.2,7c0,1.2,0,2.3,0,3.5c0,2.3,0,3.5,0,5.8c0,1.2,0,2.3-1.2,3.5c0,0-1.2,3.5-1.2,4.7
			C32.7,66.6,32.7,66.6,32.7,65.4z"/>
	</g>
	<path class="st1" d="M21,98.1c2.3-3.5,3.5-8.2,5.8-11.7c1.2-3.5,2.3-7,3.5-11.7c4.7-14,8.2-33.9,9.3-33.9s1.2,2.3,0,3.5
		c-2.3,3.5-3.5,15.2-4.7,17.5c-1.2,2.3-8.2,28-11.7,33.9c9.3-2.3,12.8-9.3,14-10.5c0,0,0,0,1.2,1.2c-5.8,8.2-14,10.5-16.3,12.8
		c0,0-5.8,7-7,9.3c-1.2,1.2-9.3,14-15.2,26.9c0-1.2,0-3.5,0-3.5C8.2,113.3,19.9,99.3,21,98.1z"/>
	<g>
		<path class="st2" d="M29.2,78.2C30.4,78.2,30.4,78.2,29.2,78.2c1.2,0,4.7-3.5,4.7-4.7c1.2-1.2,2.3-3.5,3.5-4.7
			c2.3-2.3,3.5-3.5,5.8-4.7c1.2-1.2,2.3-1.2,2.3-2.3l2.3-2.3c1.2-1.2,1.2-1.2,2.3-2.3c2.3-2.3,3.5-4.7,5.8-7c0,0,0,0,1.2-1.2
			s2.3-2.3,3.5-3.5c1.2-2.3,3.5-3.5,4.7-4.7l1.2-1.2v-1.2h-1.2c-2.3,0-3.5,1.2-5.8,1.2c-1.2,0-3.5,0-4.7,1.2c-1.2,0-3.5,1.2-4.7,2.3
			c-1.2,0-2.3,1.2-3.5,1.2c-1.2,1.2-2.3,1.2-2.3,2.3c-2.3,2.3-3.5,4.7-5.8,8.2c-1.2,1.2-1.2,2.3-2.3,3.5c-1.2,1.2-2.3,4.7-3.5,5.8
			c0,2.3-1.2,3.5-1.2,5.8C31.5,70.1,29.2,75.9,29.2,78.2z"/>
	</g>
	<g>
		<path class="st1" d="M38.5,39.7c0-1.2,0-2.3,0-4.7c0-1.2,0-7,0-9.3s0-4.7,2.3-5.8c1.2-2.3,3.5-4.7,4.7-7c0-1.2,1.2-1.2,1.2-1.2
			c1.2-1.2,4.7-5.8,5.8-7c1.2-1.2,2.3-2.3,4.7-4.7h1.2v1.2c0,0,0,0,0,1.2c0,2.3-1.2,3.5-1.2,5.8c-1.2,2.3-1.2,5.8-1.2,8.2
			c-1.2,2.3-1.2,5.8-2.3,8.2c0,1.2-1.2,2.3-1.2,3.5c-1.2,1.2-2.3,2.3-3.5,4.7c0,0-3.5,3.5-3.5,4.7c-1.2,1.2-2.3,2.3-2.3,3.5
			S42,43.2,42,43.2c0,1.2-2.3,5.8-2.3,5.8c0-1.2,1.2-3.5,1.2-4.7C39.7,43.2,38.5,40.9,38.5,39.7z"/>
	</g>
</g>
</svg>
