<svg xmlns="http://www.w3.org/2000/svg" viewBox="0 0 1037.16 38.55"><defs><style>.cls-1,.cls-2{fill:none;stroke:#000;stroke-linecap:round;stroke-linejoin:round;stroke-width:10px;}.cls-2{stroke-dasharray:31.12 31.12;}</style></defs><title>资源 5</title><g id="图层_2" data-name="图层 2"><g id="图层_1-2" data-name="图层 1"><path class="cls-1" d="M5,33.44a111.3,111.3,0,0,1,15-5.63"/><path class="cls-2" d="M50.45,21.88a121.73,121.73,0,0,1,49.28,5.56c49,16.5,80-5,111-10.75S281.6,36.3,332.14,25.12,424.52-3.8,455.35,15.57s68.28,21.49,114.8,4.68,101.9-17.31,130.46-3.56,104.49,26.36,146,3.56,55-17.69,97.77,0c21.3,8.81,43.16,5.06,59.73-.92"/><path class="cls-1" d="M1018.4,13.14A108.8,108.8,0,0,0,1032.16,5"/></g></g></svg>